<svg xmlns="http://www.w3.org/2000/svg" width="1200" height="1500" viewBox="0 0 1200 1500" role="img" aria-label="Portrait of Nora Ishii">
  <defs>
    <linearGradient id="bg3" x1="0" y1="0" x2="1" y2="1">
      <stop offset="0%" stop-color="#f5efe7"/>
      <stop offset="100%" stop-color="#d7c8b0"/>
    </linearGradient>
  </defs>
  <rect width="1200" height="1500" fill="url(#bg3)"/>
  <circle cx="600" cy="760" r="246" fill="#efd0b4"/>
  <path d="M390 680c30-225 390-245 430 32-48-130-150-188-229-188-89 0-161 63-201 156z" fill="#2a2521"/>
  <path d="M450 785c80-100 250-95 320 0-54-54-105-76-160-76-55 0-103 23-160 76z" fill="#f5ddd0" opacity="0.55"/>
  <circle cx="540" cy="755" r="13" fill="#262322"/>
  <circle cx="662" cy="755" r="13" fill="#262322"/>
  <path d="M540 848c24 26 94 26 118 0" stroke="#6f4d3b" stroke-width="8" fill="none" stroke-linecap="round"/>
  <rect x="440" y="990" width="320" height="260" rx="130" fill="#a98b66"/>
  <text x="94" y="1390" fill="#1f1b17" font-family="Arial, sans-serif" font-size="54" letter-spacing="7">NORA ISHII</text>
</svg>
